<?xml version="1.0" encoding="utf-8"?>
<!-- Generator: Adobe Illustrator 19.0.0, SVG Export Plug-In . SVG Version: 6.00 Build 0)  -->
<svg version="1.1" id="appointment" xmlns="http://www.w3.org/2000/svg" xmlns:xlink="http://www.w3.org/1999/xlink" x="0px"
	 y="0px" viewBox="0 0 100 100" style="enable-background:new 0 0 100 100;" xml:space="preserve">
<style type="text/css">
	.st0{fill:#2698D4;stroke:#2698D4;stroke-width:4;stroke-miterlimit:10;}
	.st1{fill:#2698D4;stroke:#2698D4;stroke-width:2;stroke-miterlimit:10;}
	.st2{fill:#2698D4;stroke:#2698D4;stroke-width:1.0224;stroke-miterlimit:10;}
	.st3{fill:#2698D4;stroke:#2698D4;stroke-miterlimit:10;}
</style>
<g id="XMLID_1_">
	<path id="XMLID_11_" class="st0" d="M65.6,80.2c-10.9,0-21.9,0-32.8,0c-0.8-4.5-0.5-5.2,3.2-7c1.9-0.9,3.9-1.6,5.8-2.5
		c3.6-1.7,4.5-4.1,2.4-7.6c-2.3-3.7-2.3-7.7-1.9-11.7c0.1-1.3,1.1-3,2.1-3.7c2.7-2,5.8-2,8.7-0.5c2.7,1.4,2.8,4.1,3,6.9
		c0.3,3.9-1.2,7-2.9,10.2c-0.5,1-0.1,3,0.6,4.1c0.6,1.1,1.9,1.7,3,2.3c1.8,0.9,3.7,1.6,5.5,2.5C66,75,66.4,75.9,65.6,80.2z"/>
	<path id="XMLID_10_" class="st1" d="M87,35.2c4.1,0.3,8,2.5,10,7.3c1.9,4.6,1.2,8.9-1.8,12.8c-1.3,1.7-3,1.5-5.7-0.5
		c-1.6-1.1-1.6-2.2-0.6-4c0.9-1.7,1.2-3.9,1.3-5.9c0.1-2.5-2.2-4.1-5-3.9c-2.7,0.1-4.1,1.8-4.2,4.4c-0.1,2.2,0.5,4,1.6,5.9
		c0.4,0.7,0.1,2.6-0.5,3.2c-2.8,2.8-4.5,2.4-6.3-1.2C71.7,45,77.3,35.2,87,35.2z"/>
	<path id="XMLID_9_" class="st1" d="M8.8,46.7c0.6,1.6,1.1,3.3,2,4.7c1,1.6,0.5,2.6-0.7,3.4c-1.1,0.8-2.4,1.3-3.7,1.7
		c-0.5,0.2-1.4-0.2-1.8-0.7c-3.3-3.5-4-9.4-1.7-14c2.3-4.6,7.2-7.3,11.9-6.5c5,0.8,9,4.7,9.9,9.5c0.7,3.9,0,7.4-2.4,10.5
		c-1.8,2.4-3.2,0-4.6-0.5c-1.4-0.6-1.8-1.9-1-3.4c0.9-1.7,1.9-3.2,1.6-5.5c-0.3-3.2-1.3-4.7-4.3-4.8c-3.2-0.1-4.9,1.5-4.8,4.8
		c0,0.2,0,0.3,0,0.5C9.1,46.5,8.9,46.6,8.8,46.7z"/>
	<path id="XMLID_8_" class="st2" d="M75.6,24.8c-0.1,0.3-0.3,1.3-0.7,2.3c-0.6,1.3-1.2,2.3-2.9,1.4c-1.5-0.8-2.1-1.6-1.3-3.4
		c0.5-1,0.6-2.2,0.7-3.4c0.1-1.7-1-2.4-2.5-2.4c-1.5-0.1-2.5,0.7-2.5,2.4c0,1.2,0.1,2.6,0.6,3.7c0.7,1.7,0,2.4-1.3,3.1
		c-1.6,0.8-2.2-0.1-2.8-1.3c-1.3-2.5-0.8-5.9,1.1-8c1.9-2.2,4.9-2.9,7.5-1.8C74.1,18.5,75.7,21.1,75.6,24.8z"/>
	<path id="XMLID_7_" class="st3" d="M30.5,16.8c5.1,0,8.3,5.7,5.9,10.5c-0.6,1.2-1.3,1.8-2.7,1.1c-1.2-0.6-2.1-1.2-1.4-2.9
		c0.5-1.1,0.7-2.4,0.8-3.6c0.1-1.7-0.8-2.7-2.5-2.6c-1.6,0-2.7,0.8-2.5,2.6c0.1,1.1,0.2,2.2,0.6,3.1c0.8,1.7,0.3,2.6-1.2,3.4
		c-1.7,1-2.3,0-3-1.3C22.2,22.4,25.4,16.8,30.5,16.8z"/>
	<path id="XMLID_3_" class="st2" d="M35.7,33.7c0.4,0,0.7,0.1,1.1,0.1c0.5,0.5,4,4.6,4.5,5.6c0.1,0.2,0.1,0.4,0.1,0.4
		c0.1,0.5-0.1,1.1-0.1,1.6c-0.3-0.1-0.6-0.2-0.9-0.3c-0.2-0.1-0.5-0.2-0.7-0.3c-1.5-1.8-2.9-3.6-4.4-5.4c-0.1-0.6-0.2-1.2-0.3-1.8
		C35.1,33.6,35.4,33.6,35.7,33.7z"/>
	<path id="XMLID_4_" class="st2" d="M63.1,33.7c-0.4,0-0.7,0.1-1.1,0.1c-0.5,0.5-4,4.6-4.5,5.6c-0.1,0.2-0.1,0.4-0.1,0.4
		c-0.1,0.5,0.1,1.1,0.1,1.6c0.3-0.1,0.6-0.2,0.9-0.3c0.2-0.1,0.5-0.2,0.7-0.3c1.5-1.8,2.9-3.6,4.4-5.4c0.1-0.6,0.2-1.2,0.3-1.8
		C63.7,33.6,63.4,33.6,63.1,33.7z"/>
	<path id="XMLID_6_" class="st2" d="M29.2,49.1c0.4,0.1,0.8,0.1,1.2,0.2c1.2,1.1,2.6,2.4,3.9,4c1.1,1.3,2,2.6,2.7,3.7
		c0,0.9,0.1,1.9,0.1,2.8c-0.4-0.1-0.8-0.3-1.2-0.4c-0.4-0.1-0.8-0.3-1.2-0.4c-2.2-2.5-4.3-4.9-6.5-7.4c-0.2-0.8-0.3-1.7-0.5-2.5
		C28.2,49,28.7,49.1,29.2,49.1z"/>
	<path id="XMLID_2_" class="st2" d="M68.5,49.1c-0.4,0.1-0.8,0.1-1.2,0.2c-1.2,1.1-2.6,2.4-3.9,4c-1.1,1.3-2,2.6-2.7,3.7
		c0,0.9-0.1,1.9-0.1,2.8c0.4-0.1,0.8-0.3,1.2-0.4c0.4-0.1,0.8-0.3,1.2-0.4c2.2-2.5,4.3-4.9,6.5-7.4c0.2-0.8,0.3-1.7,0.5-2.5
		C69.4,49,69,49.1,68.5,49.1z"/>
</g>
</svg>
