<?xml version="1.0" encoding="utf-8"?>
<!-- Generator: Adobe Illustrator 19.0.0, SVG Export Plug-In . SVG Version: 6.00 Build 0)  -->
<svg version="1.1" id="hand" xmlns="http://www.w3.org/2000/svg" xmlns:xlink="http://www.w3.org/1999/xlink" x="0px" y="0px"
	 viewBox="0 0 100 100" style="enable-background:new 0 0 100 100;" xml:space="preserve">
<style type="text/css">
	.st0{fill:#2698D4;stroke:#2698D4;stroke-width:2;stroke-miterlimit:10;}
	.st1{fill:#2698D4;stroke:#2698D4;stroke-width:3;stroke-miterlimit:10;}
</style>
<g id="fingers">
	<path id="XMLID_4_" class="st0" d="M36.3,57.7c0-0.7,0-1.1,0-1.6c0-7.4-0.1-14.8,0-22.2c0-2.5,0.5-5,2-7.2c2.1-3,6.2-4.6,9.7-3.9
		c2.6,0.5,4.6,1.9,6.3,4c1.4,1.8,1.8,4,1.9,6.2c0.1,2.5,0.1,4.9,0,7.4c0,0.7,0.2,1.1,0.9,1.2c2.4,0.4,4.2,1.9,5.7,3.8
		c0.2,0.3,0.6,0.5,1,0.6c3.1,0.4,5.8,1.5,7.6,4.3c0.2,0.3,0.7,0.5,1.1,0.5c3.9,0.4,6.8,2.4,8.4,6c0.7,1.4,0.8,3.2,0.9,4.7
		c0.1,4.7,0.2,9.4-0.1,14.1c-0.2,3.1-1.2,6.2-1.8,9.3c-0.5,2.5-1.1,4.9-1.6,7.4c-0.2,1-0.5,1.9-0.6,2.9c-0.1,0.9-0.5,1.1-1.3,1.1
		c-4.4,0-8.8,0-13.3,0c-7.9,0-15.7,0-23.6,0c-0.8,0-1.3-0.2-1.7-0.9c-1.8-2.9-3.7-5.8-5.6-8.6c-2.3-3.5-4.6-6.9-7-10.4
		c-0.7-1.1-1.6-2.1-2.3-3.2c-0.7-1.3-1.3-2.6-1.8-4c-0.3-0.8-0.7-1.7-0.6-2.5c0.3-4.2,1.7-7.8,5.7-9.8c2.9-1.4,5.9-1.4,8.8,0.1
		C35.4,57.2,35.7,57.4,36.3,57.7z M50.8,49.6c0-0.4,0-0.8,0-1.1c0-5,0-9.9,0-14.9c0-1.6-0.6-2.9-1.6-4.1c-1.5-1.8-4-1.8-5.7-0.3
		c-1.4,1.2-1.8,2.6-1.8,4.4c0,10.6,0,21.1,0,31.7c0,1-0.2,1.9-1.2,2.3c-0.9,0.4-1.8,0-2.5-0.7c-1.6-1.5-3.2-3-4.9-4.5
		c-1.2-1.1-2.7-1.3-4.2-0.6c-2.9,1.3-3.8,5-2,7.8c1.7,2.5,3.5,4.9,5.2,7.4c2.9,4.3,5.7,8.7,8.5,13.1c0.5,0.7,0.9,1,1.8,1
		c9.5,0,18.9,0,28.4,0c2.6,0,2.1,0.3,2.8-2.2c2.7-9.1,3-18.4,2.7-27.8c-0.1-2.7-2.2-4.8-4.8-4.5c-1.6,0.2-2.7,1.3-3.7,2.7
		c0-1.1,0-2,0-2.9c-0.1-3.4-3.2-5.5-6.3-4.1c-0.8,0.4-1.5,1.3-2.2,1.9c0.2-3.1-0.1-6-3.6-7.1C54,46.3,52.5,47.1,50.8,49.6z"/>
	<path id="XMLID_1_" class="st1" d="M60.2,36.1c0-1.8,0-3.2,0-4.3c0-0.6,0-1.1,0-2.3c0-1.7,0-2,0-2.6c0,0,0-2.1-0.3-4
		c-0.3-2.6-2.9-9.5-9.3-12.4c-3.2-1.4-6.6-1.5-8.7-1.2c-0.1,0-0.1,0-0.2,0c-2.2,0.4-4.3,1.2-6.3,2.6c-2.3,1.6-4.1,3.6-5.2,6
		c-1.1,2.4-1.1,4.5-1.1,4.9c0,4.2,2.2,7.1,3,8.2c0,2.7,0,5.3-0.1,8c-1-0.5-2.3-1.4-3.7-2.8c-0.3-0.3-1.8-1.8-3-4.2
		c-0.9-1.7-2.1-5-1.9-9.1c0.1-1.3,0.3-2.5,0.6-3.8c1.8-6.4,5.8-11,11.9-13.5c5.4-2.2,10.8-2.3,16.2-0.1c3.6,1.4,6.5,3.8,9,7
		c4.8,6.1,5.3,15.9,0.9,21.6C61.4,35,60.7,35.7,60.2,36.1z"/>
</g>
</svg>
