<?xml version="1.0" encoding="utf-8"?>
<!-- Generator: Adobe Illustrator 19.0.0, SVG Export Plug-In . SVG Version: 6.00 Build 0)  -->
<svg version="1.1" id="Board" xmlns="http://www.w3.org/2000/svg" xmlns:xlink="http://www.w3.org/1999/xlink" x="0px" y="0px"
	 viewBox="0 0 100 100" style="enable-background:new 0 0 100 100;" xml:space="preserve">
<style type="text/css">
	.st0{fill:none;stroke:#2698D4;stroke-width:3.3322;stroke-miterlimit:10;}
	.st1{fill:#2698D4;stroke:#2698D4;stroke-width:1.1107;stroke-miterlimit:10;}
	.st2{fill:#2698D4;stroke:#2698D4;stroke-width:2.2215;stroke-miterlimit:10;}
</style>
<g id="XMLID_6_">
	<path id="XMLID_30_" class="st0" d="M18.2,95c-4.5-1.5-6.1-4.5-6.1-8.8c0.1-18.2,0.1-36.5,0-54.7c0-1.6,0.4-2.1,2.2-2.1
		c24.2,0.1,48.4,0.1,72.6,0c1.8,0,2.2,0.5,2.2,2.1c-0.1,18.2-0.1,36.5,0,54.7c0,4.4-1.6,7.3-6.1,8.8C61.4,95,39.8,95,18.2,95z"/>
	<path id="XMLID_12_" class="st1" d="M90.2,24.2c-0.2-2.4,0-4.8,0-7.2c0-4.6-3.3-7.5-8.4-7.5c-4.7,0-9.4-0.1-14,0
		c-1.5,0-2-0.4-1.9-1.7c0.2-1.7-0.4-3-2-3.9c-8.9,0-17.8,0-26.8,0c-1.6,0.9-2.2,2.3-2,3.9c0.2,1.3-0.4,1.7-1.9,1.7
		c-4.8-0.1-9.7-0.1-14.5,0c-4.5,0-7.8,3-7.9,7.1c-0.1,2.7,0.1,5.5,0,8.2c0,1.3,0.3,1.7,1.8,1.7c3.4-0.1,6.8,0,10.3,0
		c21.6,0,43.3,0,64.9,0C89.9,26.5,90.4,25.9,90.2,24.2z M35.4,12.3c0,0.5,0,1.1,0,1.6c0,0.7,0,1.3,0,2c0,0.6-0.2,0.9-0.9,0.9
		c-0.7,0-1.2-0.1-1.2-0.9c0-1.2,0-2.4,0-3.6c0-0.7,0.1-1.2,1.1-1.2C35.4,11.1,35.4,11.6,35.4,12.3z M53.7,13.1c-1.3-0.1-2.7,0-4,0
		c-1.2,0-2.4-0.1-3.5,0c-1.4,0.1-1.7-0.3-1.1-1.5c0.9-1.7,2.8-2.9,4.9-2.9c2.1,0,4,1.4,4.8,3.1C55.1,12.8,54.9,13.2,53.7,13.1z
		 M67.9,12.3c0,0.5,0,1.1,0,1.6c0,0.7,0,1.3,0,2c0,0.6-0.2,0.9-0.9,0.9c-0.7,0-1.2-0.1-1.2-0.9c0-1.2,0-2.4,0-3.6
		c0-0.7,0.1-1.2,1.1-1.2C67.9,11.1,67.9,11.6,67.9,12.3z"/>
	<path id="XMLID_24_" class="st2" d="M29.7,55.1c-2.2,0-4.3-0.1-6.5,0c-1.2,0-1.7-0.4-1.5-1.5c0.2-1.3,0.5-2.5,1.1-3.6
		c1.3-2.4,1.6-2.5,4.2-1.4c2.2,0.9,4.4,0.8,6.3-0.5c1.1-0.8,1.6-0.5,2.2,0.4c0.4,0.6,0.8,1.1,1.1,1.7c2.1,3.9,1.4,5-3.1,5
		C32.3,55.1,31,55.1,29.7,55.1z"/>
	<path id="XMLID_23_" class="st2" d="M54.5,69.2c7.6,0,15.3,0,22.9,0c0.7,0,2.1-0.7,2.1,0.9c0,1.4-1.3,0.8-2,0.8
		c-15.5,0-31.1,0-46.6,0c-0.7,0-1.9,0.5-1.9-0.9c0.1-1.4,1.3-0.8,2-0.8C38.8,69.2,46.7,69.2,54.5,69.2z"/>
	<path id="XMLID_22_" class="st2" d="M24.6,41c0.1-2.7,2.4-4.7,5.4-4.5c2.8,0.1,5,2.3,5,4.8c-0.1,2.6-2.5,4.8-5.4,4.7
		C26.7,45.9,24.5,43.7,24.6,41z"/>
	<path id="XMLID_21_" class="st2" d="M53,76.5c7.4,0,14.8,0,22.3,0c0.7,0,1.7-0.5,1.7,0.8c0,1.3-1.1,0.8-1.7,0.8
		c-14.8,0-29.7,0-44.5,0c-0.7,0-1.7,0.4-1.7-0.9c0-1.3,1.1-0.8,1.7-0.8C38.1,76.5,45.6,76.5,53,76.5z"/>
	<path id="XMLID_20_" class="st2" d="M60.8,40.3c5.7,0,11.4,0,17.1,0c0.7,0,1.7-0.4,1.7,0.9c0,1.2-0.9,1-1.6,1
		c-11.4,0-22.9,0-34.3,0c-0.7,0-1.7,0.3-1.7-0.9c0-1.4,1.1-1,1.9-1C49.4,40.3,55.1,40.3,60.8,40.3z"/>
	<path id="XMLID_19_" class="st2" d="M52.3,63.7c-7.2,0-14.4,0-21.6,0c-0.7,0-1.7,0.5-1.8-0.8c-0.1-1.3,1-0.9,1.7-0.9
		c14.5,0,28.9,0,43.4,0c0.7,0,1.7-0.4,1.7,0.9c-0.1,1.3-1.1,0.8-1.8,0.8C66.7,63.7,59.5,63.7,52.3,63.7z"/>
	<path id="XMLID_18_" class="st2" d="M50.8,85.4c-6.7,0-13.4,0-20.1,0c-0.7,0-1.7,0.4-1.8-0.8c0-1.3,1-0.9,1.7-0.9
		c13.5,0,26.9,0,40.4,0c0.7,0,1.8-0.4,1.8,0.8c0,1.2-1,0.9-1.7,0.9C64.4,85.4,57.6,85.4,50.8,85.4z"/>
	<path id="XMLID_17_" class="st2" d="M59,46.3c5.1,0,10.2,0,15.3,0c0.7,0,1.7-0.3,1.7,0.9c0,1-0.9,0.9-1.6,0.9
		c-10.4,0-20.7,0-31.1,0c-0.7,0-1.5,0.2-1.5-0.9c0-1.2,0.9-0.9,1.7-0.9C48.7,46.3,53.9,46.3,59,46.3z"/>
	<path id="XMLID_16_" class="st2" d="M60.5,54.1c-5.6,0-11.2,0-16.8,0c-0.8,0-1.9,0.4-1.8-1c0.1-1.2,1.2-0.7,1.8-0.7
		c11.4,0,22.7,0,34.1,0c0.7,0,1.7-0.4,1.7,0.8c0,1.2-1,0.9-1.7,0.9C72,54.1,66.3,54.1,60.5,54.1z"/>
	<path id="XMLID_2_" class="st2" d="M23.7,63.7c-1.1,0-1.4,0.1-1.7-0.1c-0.2-0.2-0.3-0.5-0.3-0.7c0-0.1-0.1-0.5,0.2-0.8
		c0.2-0.2,0.4-0.2,1.6-0.2c1.2,0,1.4-0.1,1.6,0.2c0.3,0.2,0.3,0.6,0.3,0.7c0,0.1,0,0.5-0.2,0.8C25.1,63.8,24.8,63.7,23.7,63.7z"/>
	<path id="XMLID_3_" class="st2" d="M23.6,71c-1.1,0-1.4,0.1-1.7-0.2c-0.3-0.3-0.2-0.7-0.2-0.8c0-0.1,0-0.5,0.3-0.7
		c0.3-0.2,0.6-0.1,1.7-0.1c1,0,1.3-0.1,1.6,0.1c0.3,0.3,0.3,0.7,0.3,0.8c0,0.1,0,0.5-0.3,0.7C25,71.1,24.7,71,23.6,71z"/>
	<path id="XMLID_4_" class="st2" d="M23.6,76.4c1.2,0,1.5,0,1.7,0.2c0.3,0.3,0.2,0.7,0.2,0.8c0,0.1,0,0.5-0.3,0.7
		c-0.3,0.2-0.6,0.1-1.6,0.1c-1.1,0-1.4,0.1-1.6-0.2c-0.3-0.3-0.2-0.7-0.2-0.8c0-0.1,0-0.5,0.3-0.7C22.3,76.3,22.5,76.4,23.6,76.4z"
		/>
	<path id="XMLID_5_" class="st2" d="M23.7,85.4c-1.2,0-1.5,0.1-1.8-0.2c-0.2-0.3-0.2-0.6-0.2-0.8c0-0.1,0-0.5,0.3-0.8
		c0.3-0.2,0.6-0.1,1.7-0.1c1.1,0,1.3-0.1,1.6,0.1c0.3,0.3,0.3,0.7,0.3,0.8c0,0.1,0,0.5-0.3,0.7C25,85.6,24.7,85.5,23.7,85.4z"/>
</g>
</svg>
