<?xml version="1.0" encoding="utf-8"?>
<!-- Generator: Adobe Illustrator 19.0.0, SVG Export Plug-In . SVG Version: 6.00 Build 0)  -->
<svg version="1.1" id="cloud" xmlns="http://www.w3.org/2000/svg" xmlns:xlink="http://www.w3.org/1999/xlink" x="0px" y="0px"
	 viewBox="-717 975 100 100" style="enable-background:new -717 975 100 100;" xml:space="preserve">
<style type="text/css">
	.st0{fill:#2698D4;stroke:#2698D4;stroke-width:2.1492;stroke-miterlimit:10;}
</style>
<g id="XMLID_3_">
	<path id="XMLID_11_" class="st0" d="M-656.9,1002.9c3.5,0,5.6,1.4,7.4,3.5c2.8,3.7,2.7,9.3-0.1,13c-3.4,4.3-9.2,4.5-12.9,0.5
		c-3.9-4.2-3.5-11.2,0.8-15.1C-660.1,1003.6-658.3,1002.9-656.9,1002.9z"/>
	<path id="XMLID_10_" class="st0" d="M-714,1013.3c0.1-4.3,1.3-8,3.8-11.4c0.3-0.5,0.6-1.5,1.5-1c1,0.5,0.1,1.2-0.2,1.7
		c-4.8,7-4.4,14.1-0.2,21.2c0.1,0.2,0.2,0.3,0.3,0.5c0.3,0.5,1,1.1,0.2,1.6c-1,0.5-1.3-0.3-1.6-0.9c-1.4-2.1-2.4-4.4-3-6.7
		C-713.7,1016.7-714,1015-714,1013.3z"/>
	<path id="XMLID_9_" class="st0" d="M-707.8,1013.1c0.1-3.7,1.2-7.2,3.5-10.3c0.3-0.5,0.8-1.3,1.5-0.7s0.1,1.1-0.2,1.6
		c-4.3,6.4-4,12.8-0.2,19.2c0.3,0.6,1.4,1.4,0.4,1.9c-1,0.5-1.3-0.6-1.6-1.3C-706.6,1020.4-707.8,1017-707.8,1013.1z"/>
	<path id="XMLID_6_" class="st0" d="M-621.4,1038.6c-5.2-4.6-10.4-9.1-16.3-12.8c-3.6-2.2-7.4-3.5-11.6-2.9
		c-6.7,0.9-13.4,1.9-19.9,4c-4,1.3-4.1,1.2-5.7-2.6c-0.2-0.6-0.4-1.1,0.1-1.7c0.4-0.4,0.4-1,0.5-1.6c0.2-1.3-0.6-3,0.4-3.7
		c1-0.7,2.6-0.7,3.9-1.2c0.5-0.1,1.1-0.3,1.6-0.4c1.1-0.2,1.8-0.5,1.7-1.9c-0.1-1.2-0.2-1.8-1.6-2.2c-9.6-2.5-19.4-5-29-7.7
		c-1.1-0.3-1.7-0.1-2.3,0.9c-3.7,6-3.2,12,0.2,17.8c0.5,0.9,1.1,0.9,1.8,0.6c3.5-1,6.9-1.8,10.4-2.7c1-0.2,1.4-0.3,1.5,0.9
		c0.1,1.3,1,2.2,2.3,2.3c1,0.1,1.1,0.6,1.2,1.3c0.8,2.8,1.6,5.7,2.4,8.4c0.6,2.2,1.8,2.9,4.3,2.6c2.2-0.3,4.2-1.2,6.4-1.6
		c2.8-0.6,4.2,0.5,4.4,3.3c0.4,5.1,0,10.3-1.1,15.4c-0.2,1.2,0.1,1.4,1.2,1.4c5.4,0,10.7,0,16.1,0c2.3,0,4.4,0,6.7,0
		c-0.5-3.3-1.2-6.4-1.6-9.5c-0.4-3.3-0.9-6.7,0.2-9.9c0.5-1.8,1.2-2,2.9-1.3c2.2,1,4,2.3,5.9,3.7c3.5,2.5,6.7,5,10.3,7.4
		c2.5,1.7,3.6,1.4,5.4-0.7c0-0.5,0-1.1,0-1.7C-619.3,1040.9-620.3,1039.7-621.4,1038.6z M-677.1,1020.9c-2.5-2-3.4-1.9-5.3,0.6
		c-0.2,0.2-0.3,0.4-0.6,0.3c-0.5-0.2-0.5-0.6-0.5-1.1c0-0.5,0-1.1,0.8-1.3c1.8-0.4,3.6-0.9,5.4-1.3c0.1,0,0.3-0.2,0.4-0.1
		C-676.3,1018.5-676.4,1020.1-677.1,1020.9z"/>
</g>
</svg>
