<?xml version="1.0" encoding="utf-8"?>
<!-- Generator: Adobe Illustrator 19.0.0, SVG Export Plug-In . SVG Version: 6.00 Build 0)  -->
<svg version="1.1" id="cloud" xmlns="http://www.w3.org/2000/svg" xmlns:xlink="http://www.w3.org/1999/xlink" x="0px" y="0px"
	 viewBox="-717 975 100 100" style="enable-background:new -717 975 100 100;" xml:space="preserve">
<style type="text/css">
	.st0{fill:#2698D4;stroke:#2698D4;stroke-width:1.0375;stroke-miterlimit:10;}
	.st1{fill:#2698D4;stroke:#2698D4;stroke-width:0.9543;stroke-miterlimit:10;}
	.st2{fill:#2698D4;stroke:#2698D4;stroke-width:0.8214;stroke-miterlimit:10;}
</style>
<g id="XMLID_2_">
	<path id="main_x5F_cloud" class="st0" d="M-626.4,1024.3c-0.6-0.5-0.7-1.3-0.7-2c-0.3-5.2-2.6-9.3-7.6-11.5c-1.8-0.8-3-1.9-3.7-3.7
		c-6.5-13.3-25.4-16-35.6-5.9c-1.2,1.3-2.5,1.4-4.1,0.7c-3.1-1.3-6.2-1.3-9.3-0.6c-6.9,1.5-11.1,5.7-12.6,12.4
		c-0.3,1.8-1.1,2.7-3.1,3.2c-3.1,0.6-5.3,2.4-7.2,4.8c-3,4-3.1,8.4-1.4,13c0.3,0.7,0.8,1.5,0.1,2.3c-1.6,1.4-1.7,3.3-2.2,5.1
		c0,1.8,0,3.7,0,5.5c0.6,1.3,0.3,3,1.4,4.2c2.4,2.9,5.3,4.5,9.3,4.5c21.3,0,42.6,0,63.9,0c1,0,2,0,3.1-0.2
		c7.9-1.7,12.8-6.5,14.3-14.6c0-2.5,0-4.9,0-7.4C-622.1,1030.1-623.5,1026.8-626.4,1024.3z M-650.8,1045.7c0,2.4-1.1,3.6-3.7,3.6
		c-4.2,0.1-8.4,0-12.5,0l0,0c-3.9,0-7.7,0-11.6,0c-3.4,0-4.3-1-4.3-4.2c0-5.8,0-11.6,0-17.5c0-1.3,0.2-2.1,1.8-1.9
		c1.2,0.2,1.7-0.4,1.6-1.5c0-2,0.1-4,0.2-6.1c0.3-6.5,5.7-11.5,12.4-11.5c6.5,0,12,5.1,12.4,11.6c0.1,1.9,0.1,3.8,0,5.7
		c-0.1,1.3,0.3,2,1.8,1.8c1.5-0.2,1.9,0.4,1.9,1.8C-650.9,1033.7-650.8,1039.6-650.8,1045.7z"/>
	<path id="lock_x5F_back" class="st1" d="M-667,1026.1c-1.9,0-3.8,0-5.7,0c-0.9,0-1.4-0.1-1.4-1.4c0.1-2.2-0.1-4.4,0.3-6.6
		c0.6-3.6,3.6-6.2,7.1-6.2c3.4,0.1,6.5,2.9,6.8,6.6c0.2,2.2,0,4.4,0.1,6.7c0,1-0.6,0.9-1.2,0.9C-663,1026.1-665,1026.1-667,1026.1z"
		/>
	<path id="key_x5F_hole" class="st2" d="M-666.9,1042.9c-0.8,0.2-1.2-0.2-1.1-1.1c0.2-1.6-0.2-3-1.2-4.3c-0.9-1.1-0.6-2.9,0.3-3.9
		c1-1,2.6-1,3.6,0c1.1,1,1.4,2.6,0.4,3.9c-1,1.3-1.4,2.8-1.2,4.4C-666,1042.7-666.3,1043.1-666.9,1042.9z"/>
</g>
</svg>
